<svg id="Layer_1" enable-background="new 0 0 512.007 512.007" height="512" viewBox="0 0 512.007 512.007" width="512" xmlns="http://www.w3.org/2000/svg"><g><g><g clip-rule="evenodd" fill-rule="evenodd"><path d="m313.691 106.003c16.493 0 29.877-13.308 29.999-29.772.001-.076.001-.152.001-.228 0-16.569-13.432-30-30-30s-30 13.432-30 30c0 5.547 1.505 10.741 4.129 15.199 2.629 4.465 6.381 8.19 10.868 10.787 4.413 2.552 9.537 4.014 15.003 4.014z" fill="#fff"/><path d="m343.69 76.231c-.123 16.464-13.507 29.772-29.999 29.772-5.465 0-10.589-1.462-15.003-4.015-4.487-2.596-8.239-6.321-10.866-10.787l-65.557 17.566-112.178 30.058 78.281 292.147 4.541 16.949 29.356-7.866 111.815-29.961 167.925-44.995-82.823-309.096z" fill="#fffbe1"/><path d="m188.367 430.972-78.281-292.147 112.179-30.058-129.44-34.684-82.822 309.097z" fill="#fff7bf"/><path d="m334.08 410.094-111.815 29.961 96.834 25.947z" fill="#fff7bf"/></g><g><path d="m197.155 241.964c-4.416 0-8.456-2.947-9.653-7.415-1.43-5.334 1.736-10.817 7.071-12.247l193.182-51.763c5.333-1.43 10.817 1.737 12.247 7.071s-1.736 10.817-7.071 12.247l-193.182 51.763c-.867.233-1.738.344-2.594.344z" fill="#fff2a0"/></g><g><path d="m208.802 285.431c-4.416 0-8.456-2.946-9.653-7.415-1.43-5.334 1.736-10.817 7.071-12.247l193.181-51.763c5.332-1.431 10.817 1.737 12.247 7.071s-1.736 10.817-7.071 12.247l-193.181 51.763c-.866.233-1.737.344-2.594.344z" fill="#fff2a0"/></g><g><path d="m220.449 328.897c-4.416 0-8.456-2.947-9.653-7.415-1.43-5.334 1.736-10.817 7.071-12.247l193.181-51.763c5.333-1.43 10.817 1.736 12.247 7.071 1.43 5.334-1.736 10.817-7.071 12.247l-193.181 51.763c-.867.233-1.738.344-2.594.344z" fill="#fff2a0"/></g><g><path d="m232.095 372.364c-4.416 0-8.456-2.946-9.653-7.415-1.43-5.334 1.736-10.817 7.071-12.247l96.591-25.882c5.334-1.43 10.817 1.736 12.247 7.071 1.43 5.334-1.736 10.817-7.071 12.247l-96.591 25.882c-.866.233-1.737.344-2.594.344z" fill="#fff2a0"/></g></g><path d="m511.664 362.511-82.823-309.096c-.687-2.563-2.362-4.746-4.659-6.072-2.298-1.327-5.03-1.686-7.588-.999l-64.841 17.375c-5.197-16.063-20.291-27.715-38.062-27.715-22.056 0-40 17.944-40 40 0 2.879.313 5.685.893 8.393l-52.32 14.019-126.851-33.992c-5.336-1.429-10.817 1.737-12.247 7.071l-82.823 309.096c-1.43 5.334 1.736 10.817 7.071 12.247l172.787 46.299 3.047 11.372c1.197 4.468 5.237 7.415 9.653 7.415.856 0 1.728-.111 2.594-.344l26.77-7.173 94.246 25.253c.867.232 1.737.344 2.594.344 4.415 0 8.456-2.947 9.653-7.415l13.486-50.33 162.348-43.501c5.335-1.429 8.501-6.913 7.072-12.247zm-197.973-306.509c11.028 0 20 8.972 20 20s-8.972 20-20 20-20-8.972-20-20 8.972-20 20-20zm-291.441 320.106 77.646-289.777 83.732 22.436-76.13 20.399c-2.563.687-4.746 2.362-6.072 4.659s-1.686 5.026-.999 7.588l73.798 275.418zm289.778 77.646-51.126-13.699 59.036-15.819zm-112.049-18.08-77.646-289.778 161.529-43.281c.585.655 1.191 1.29 1.817 1.906l-16.748 29.008c-2.762 4.783-1.123 10.898 3.66 13.66 1.575.909 3.294 1.342 4.99 1.342 3.456 0 6.818-1.794 8.67-5.002l16.739-28.992c3.408.948 6.994 1.465 10.701 1.465 19.273 0 35.404-13.702 39.169-31.876l59.251-15.876 77.646 289.777z" fill="#ffc144"/></g></svg>