<svg id="Gradient" height="512" viewBox="0 0 512 512" width="512" xmlns="http://www.w3.org/2000/svg" xmlns:xlink="http://www.w3.org/1999/xlink"><linearGradient id="linear-gradient" gradientUnits="userSpaceOnUse" x1="256" x2="256" y1="488" y2="24"><stop offset="0" stop-color="#12c2e9"/><stop offset=".5" stop-color="#c471ed"/><stop offset="1" stop-color="#f64f59"/></linearGradient><path d="m472 24h-432a24.028 24.028 0 0 0 -24 24v416a24.028 24.028 0 0 0 24 24h432a24.028 24.028 0 0 0 24-24v-416a24.028 24.028 0 0 0 -24-24zm-432 16h432a8.009 8.009 0 0 1 8 8v40h-448v-40a8.009 8.009 0 0 1 8-8zm432 432h-432a8.009 8.009 0 0 1 -8-8v-360h448v360a8.009 8.009 0 0 1 -8 8zm-360-408a8 8 0 1 1 8 8 8 8 0 0 1 -8-8zm-32 0a8 8 0 1 1 8 8 8 8 0 0 1 -8-8zm-32 0a8 8 0 1 1 8 8 8 8 0 0 1 -8-8zm304 264h-192a8 8 0 0 0 -8 8v32a8 8 0 0 0 8 8h192a8 8 0 0 0 8-8v-32a8 8 0 0 0 -8-8zm-184 16h16v16h-16zm176 16h-144v-16h144zm8 32h-192a8 8 0 0 0 -8 8v32a8 8 0 0 0 8 8h192a8 8 0 0 0 8-8v-32a8 8 0 0 0 -8-8zm-184 16h16v16h-16zm176 16h-144v-16h144zm-88-112a88.016 88.016 0 1 0 -66.2-30.03 87.992 87.992 0 0 0 66.2 30.03zm-51.126-37.331c8.974-25.698 29.079-42.669 51.126-42.669s42.153 16.972 51.125 42.669a71.934 71.934 0 0 1 -102.251 0zm35.126-74.669a16 16 0 1 1 16 16 16.019 16.019 0 0 1 -16-16zm16-48a71.973 71.973 0 0 1 62.362 107.951c-8.611-18.187-22.282-31.926-38.31-38.879a32 32 0 1 0 -48.1 0c-16.028 6.953-29.7 20.692-38.31 38.879a71.973 71.973 0 0 1 62.358-107.951z" fill="url(#linear-gradient)"/></svg>